<svg width="21" height="20" viewBox="0 0 21 20" fill="none" xmlns="http://www.w3.org/2000/svg">
<g clip-path="url(#clip0_554_387)">
<path d="M14.1251 10.9408C15.2668 11.7158 16.0668 12.7658 16.0668 14.1658V16.6658H19.4001V14.1658C19.4001 12.3492 16.4251 11.2742 14.1251 10.9408Z" fill="white"/>
<path d="M12.7335 9.99925C14.5751 9.99925 16.0668 8.50758 16.0668 6.66591C16.0668 4.82425 14.5751 3.33258 12.7335 3.33258C12.3418 3.33258 11.9751 3.41591 11.6251 3.53258C12.3168 4.39091 12.7335 5.48258 12.7335 6.66591C12.7335 7.84925 12.3168 8.94091 11.6251 9.79925C11.9751 9.91591 12.3418 9.99925 12.7335 9.99925Z" fill="white"/>
<path d="M7.73348 9.99925C9.57515 9.99925 11.0668 8.50758 11.0668 6.66591C11.0668 4.82425 9.57515 3.33258 7.73348 3.33258C5.89181 3.33258 4.40015 4.82425 4.40015 6.66591C4.40015 8.50758 5.89181 9.99925 7.73348 9.99925ZM7.73348 4.99925C8.65015 4.99925 9.40015 5.74925 9.40015 6.66591C9.40015 7.58258 8.65015 8.33258 7.73348 8.33258C6.81681 8.33258 6.06681 7.58258 6.06681 6.66591C6.06681 5.74925 6.81681 4.99925 7.73348 4.99925Z" fill="white"/>
<path d="M7.73356 10.8328C5.50856 10.8328 1.06689 11.9494 1.06689 14.1661V16.6661H14.4002V14.1661C14.4002 11.9494 9.95856 10.8328 7.73356 10.8328ZM12.7336 14.9994H2.73356V14.1744C2.90023 13.5744 5.48356 12.4994 7.73356 12.4994C9.98356 12.4994 12.5669 13.5744 12.7336 14.1661V14.9994Z" fill="white"/>
</g>
<defs>
<clipPath id="clip0_554_387">
<rect width="20" height="20" fill="white" transform="translate(0.233398)"/>
</clipPath>
</defs>
</svg>
