<svg width="20" height="21" viewBox="0 0 20 21" fill="none" xmlns="http://www.w3.org/2000/svg">
<path d="M2 4.45135H0V18.4514C0 19.5514 0.9 20.4514 2 20.4514H16V18.4514H2V4.45135ZM18 0.451355H6C4.9 0.451355 4 1.35135 4 2.45135V14.4514C4 15.5514 4.9 16.4514 6 16.4514H18C19.1 16.4514 20 15.5514 20 14.4514V2.45135C20 1.35135 19.1 0.451355 18 0.451355ZM18 14.4514H6V2.45135H18V14.4514ZM8 7.45135H16V9.45135H8V7.45135ZM8 10.4514H12V12.4514H8V10.4514ZM8 4.45135H16V6.45135H8V4.45135Z" fill="white"/>
</svg>
