<svg width="20" height="21" viewBox="0 0 20 21" fill="none" xmlns="http://www.w3.org/2000/svg">
<g clip-path="url(#clip0_554_418)">
<path d="M16.1914 11.2679C16.2247 11.0012 16.2497 10.7346 16.2497 10.4512C16.2497 10.1679 16.2247 9.90123 16.1914 9.63456L17.9497 8.25956C18.1081 8.13456 18.1497 7.90956 18.0497 7.72623L16.3831 4.84289C16.3081 4.70956 16.1664 4.63456 16.0164 4.63456C15.9664 4.63456 15.9164 4.64289 15.8747 4.65956L13.7997 5.49289C13.3664 5.15956 12.8997 4.88456 12.3914 4.67623L12.0747 2.46789C12.0497 2.26789 11.8747 2.11789 11.6664 2.11789H8.33308C8.12474 2.11789 7.94974 2.26789 7.92474 2.46789L7.60808 4.67623C7.09974 4.88456 6.63308 5.16789 6.19974 5.49289L4.12474 4.65956C4.07474 4.64289 4.02474 4.63456 3.97474 4.63456C3.83308 4.63456 3.69141 4.70956 3.61641 4.84289L1.94974 7.72623C1.84141 7.90956 1.89141 8.13456 2.04974 8.25956L3.80808 9.63456C3.77474 9.90123 3.74974 10.1762 3.74974 10.4512C3.74974 10.7262 3.77474 11.0012 3.80808 11.2679L2.04974 12.6429C1.89141 12.7679 1.84974 12.9929 1.94974 13.1762L3.61641 16.0596C3.69141 16.1929 3.83308 16.2679 3.98308 16.2679C4.03308 16.2679 4.08308 16.2596 4.12474 16.2429L6.19974 15.4096C6.63308 15.7429 7.09974 16.0179 7.60808 16.2262L7.92474 18.4346C7.94974 18.6346 8.12474 18.7846 8.33308 18.7846H11.6664C11.8747 18.7846 12.0497 18.6346 12.0747 18.4346L12.3914 16.2262C12.8997 16.0179 13.3664 15.7346 13.7997 15.4096L15.8747 16.2429C15.9247 16.2596 15.9747 16.2679 16.0247 16.2679C16.1664 16.2679 16.3081 16.1929 16.3831 16.0596L18.0497 13.1762C18.1497 12.9929 18.1081 12.7679 17.9497 12.6429L16.1914 11.2679ZM14.5414 9.84289C14.5747 10.1012 14.5831 10.2762 14.5831 10.4512C14.5831 10.6262 14.5664 10.8096 14.5414 11.0596L14.4247 12.0012L15.1664 12.5846L16.0664 13.2846L15.4831 14.2929L14.4247 13.8679L13.5581 13.5179L12.8081 14.0846C12.4497 14.3512 12.1081 14.5512 11.7664 14.6929L10.8831 15.0512L10.7497 15.9929L10.5831 17.1179H9.41641L9.25808 15.9929L9.12474 15.0512L8.24141 14.6929C7.88308 14.5429 7.54974 14.3512 7.21641 14.1012L6.45808 13.5179L5.57474 13.8762L4.51641 14.3012L3.93308 13.2929L4.83308 12.5929L5.57474 12.0096L5.45808 11.0679C5.43308 10.8096 5.41641 10.6179 5.41641 10.4512C5.41641 10.2846 5.43308 10.0929 5.45808 9.84289L5.57474 8.90123L4.83308 8.31789L3.93308 7.61789L4.51641 6.60956L5.57474 7.03456L6.44141 7.38456L7.19141 6.81789C7.54974 6.55123 7.89141 6.35123 8.23308 6.20956L9.11641 5.85123L9.24974 4.90956L9.41641 3.78456H10.5747L10.7331 4.90956L10.8664 5.85123L11.7497 6.20956C12.1081 6.35956 12.4414 6.55123 12.7747 6.80123L13.5331 7.38456L14.4164 7.02623L15.4747 6.60123L16.0581 7.60956L15.1664 8.31789L14.4247 8.90123L14.5414 9.84289ZM9.99974 7.11789C8.15808 7.11789 6.66641 8.60956 6.66641 10.4512C6.66641 12.2929 8.15808 13.7846 9.99974 13.7846C11.8414 13.7846 13.3331 12.2929 13.3331 10.4512C13.3331 8.60956 11.8414 7.11789 9.99974 7.11789ZM9.99974 12.1179C9.08308 12.1179 8.33308 11.3679 8.33308 10.4512C8.33308 9.53456 9.08308 8.78456 9.99974 8.78456C10.9164 8.78456 11.6664 9.53456 11.6664 10.4512C11.6664 11.3679 10.9164 12.1179 9.99974 12.1179Z" fill="white"/>
</g>
<defs>
<clipPath id="clip0_554_418">
<rect width="20" height="20" fill="white" transform="translate(0 0.451172)"/>
</clipPath>
</defs>
</svg>
